<svg data-name="Livello 1" viewBox="0 0 130 107" width="35" height="27" xmlns="http://www.w3.org/2000/svg"><path d="m31.626 60.945 14.237 39.406s1.78 3.687 3.686 3.687 30.255-29.492 30.255-29.492l31.525-60.89-79.195 37.117z" fill="#c8daea"/><path d="m50.503 71.05-2.733 29.047s-1.144 8.9 7.754 0 17.415-15.763 17.415-15.763" fill="#a9c6d8"/><path d="M31.883 62.35 2.597 52.81s-3.5-1.42-2.373-4.64c.232-.664.7-1.23 2.1-2.2C8.813 41.446 122.43.609 122.43.609s3.208-1.081 5.1-.362a2.766 2.766 0 0 1 1.885 2.055 9.357 9.357 0 0 1 .254 2.585c-.01.752-.1 1.449-.17 2.542-.691 11.165-21.4 94.493-21.4 94.493s-1.238 4.876-5.677 5.043a8.13 8.13 0 0 1-5.925-2.292c-8.711-7.493-38.82-27.727-45.472-32.177a1.27 1.27 0 0 1-.546-.9c-.093-.47.417-1.05.417-1.05s52.426-46.6 53.82-51.492c.109-.38-.3-.566-.847-.4-3.482 1.28-63.844 39.4-70.506 43.607a3.21 3.21 0 0 1-1.48.09z" fill="#fff"/></svg>