<svg xmlns="http://www.w3.org/2000/svg" viewBox="0 -256 1792 1792">
  <path fill="#d53333" d="M1773.22 645.56a869.424 865.627 0 0 1-869.405 865.626 869.424 865.627 0 0 1-869.442-865.59A869.424 865.627 0 0 1 903.74-220.068a869.424 865.627 0 0 1 869.48 865.554l-869.424.073z"/>
  <path fill="#d8c892" d="M1525.739 668.285q0 41.736-29.384 73.651l-59.562 61.376q-30.178 31.097-72.268 31.097-42.885 0-71.474-31.097l-233.483-239.775v576.115q0 42.554-29.78 69.15-29.781 26.597-71.872 26.597H856.264q-42.09 0-71.871-26.596-29.781-26.597-29.781-69.15V563.536L521.13 803.312q-28.59 31.097-71.475 31.097-42.884 0-71.474-31.097l-59.562-61.376q-30.178-31.097-30.178-73.651 0-43.372 30.178-74.47L835.616 61.072q27.796-30.279 71.474-30.279 42.885 0 72.269 30.279l516.996 532.743q29.384 31.916 29.384 74.47z"/>
</svg>
