<svg width="512" height="512" viewBox="0 0 46.72 46.72" xmlns="http://www.w3.org/2000/svg"><g fill="none" fill-rule="nonzero"><path d="M9.847 1h27.174a8.828 8.828 0 018.847 8.847v27.174a8.828 8.828 0 01-8.847 8.847H9.847A8.828 8.828 0 011 37.02V9.847A8.828 8.828 0 019.847 1z" stroke="none" fill="#fff" stroke-width="2"/><g fill="#e535ab"><path d="M11.29 32.22l-1.198-.691L23.445 8.402l1.198.692z"/><path d="M9.817 29.681h26.706v1.384H9.817z"/><path d="M23.704 38.171L10.346 30.46l.692-1.199 13.358 7.713zM35.308 18.07L21.95 10.359l.692-1.198L36 16.872z"/><path d="M11.041 18.065l-.692-1.198 13.358-7.713.692 1.199z"/><path d="M35.061 32.221L21.708 9.094l1.199-.692L36.26 31.529zM10.876 15.949h1.384v15.425h-1.384z"/><path d="M34.088 15.949h1.384v15.425h-1.384z"/><path d="M23.468 37.585l-.605-1.047 11.618-6.707.605 1.047z"/><path d="M37.307 31.824a2.914 2.914 0 01-3.977 1.067 2.914 2.914 0 01-1.068-3.977 2.914 2.914 0 013.978-1.067 2.902 2.902 0 011.067 3.977M14.078 18.409a2.914 2.914 0 01-3.977 1.067 2.914 2.914 0 01-1.067-3.977 2.914 2.914 0 013.977-1.068 2.916 2.916 0 011.067 3.978M9.042 31.824a2.916 2.916 0 011.067-3.977 2.916 2.916 0 013.977 1.067 2.916 2.916 0 01-1.067 3.977c-1.4.8-3.177.325-3.977-1.067M32.27 18.409a2.916 2.916 0 011.068-3.978 2.916 2.916 0 013.977 1.068 2.916 2.916 0 01-1.067 3.977 2.914 2.914 0 01-3.977-1.067M23.174 39.987c-1.609 0-2.91-1.301-2.91-2.91 0-1.61 1.301-2.91 2.91-2.91 1.61 0 2.91 1.3 2.91 2.91 0 1.6-1.3 2.91-2.91 2.91M23.174 13.156c-1.609 0-2.91-1.3-2.91-2.91s1.301-2.91 2.91-2.91c1.61 0 2.91 1.3 2.91 2.91s-1.3 2.91-2.91 2.91"/></g></g></svg>