<?xml version="1.0" encoding="UTF-8" standalone="no"?>
<svg
   width="97"
   height="97"
   viewBox="0 0 97 97"
   role="img"
   version="1.1"
   id="svg6"
   sodipodi:docname="inkscape.svg"
   inkscape:version="1.1.1 (3bf5ae0d25, 2021-09-20)"
   xmlns:inkscape="http://www.inkscape.org/namespaces/inkscape"
   xmlns:sodipodi="http://sodipodi.sourceforge.net/DTD/sodipodi-0.dtd"
   xmlns="http://www.w3.org/2000/svg"
   xmlns:svg="http://www.w3.org/2000/svg"
   xmlns:rdf="http://www.w3.org/1999/02/22-rdf-syntax-ns#"
   xmlns:cc="http://creativecommons.org/ns#"
   xmlns:dc="http://purl.org/dc/elements/1.1/">
  <defs
     id="defs10" />
  <sodipodi:namedview
     id="namedview8"
     pagecolor="#505050"
     bordercolor="#eeeeee"
     borderopacity="1"
     inkscape:pageshadow="0"
     inkscape:pageopacity="0"
     inkscape:pagecheckerboard="0"
     showgrid="false"
     inkscape:zoom="5.295935"
     inkscape:cx="59.668406"
     inkscape:cy="65.144304"
     inkscape:current-layer="svg6" />
  <title
     id="title2">Inkscape icon</title>
  <rect
     style="fill:#ffffff;stroke-width:3"
     id="rect867"
     width="97.244392"
     height="97.244392"
     x="-0.18882407"
     y="-0.18882407"
     ry="14.917102" />
  <path
     d="M 48.374691,7.5558914 C 45.783289,7.5175562 43.282325,8.5247271 41.442256,10.357848 L 10.745445,41.855462 c -11.62826362,11.639967 7.527241,10.667646 14.449241,15.072712 3.207079,2.097982 -10.278648,4.777963 -7.527239,7.541584 2.681839,2.763621 16.174522,5.300716 18.859841,7.991151 2.68184,2.756651 -5.440205,5.670128 -2.758365,8.42678 2.608794,2.763621 8.866421,0.149855 9.982985,6.419407 0.817422,4.628108 11.478694,2.321024 16.251047,-1.641445 2.970548,-2.54058 -5.144542,-2.54058 -2.462701,-5.300716 6.709818,-6.792305 12.668304,-3.049392 15.127527,-9.325914 1.346138,-3.356074 -10.132556,-5.750283 -7.07505,-7.914481 7.308103,-5.147375 34.12999,-7.76114 21.75734,-20.150387 L 55.533222,10.357848 C 53.585323,8.5421521 51.028704,7.5454363 48.374691,7.5558914 Z m 0.26088,2.9936326 c 1.84007,0.01046 3.687095,0.700489 5.022798,2.035252 l 12.146544,12.396217 c 1.123521,1.118691 1.123521,3.43623 0.448713,4.105354 l -6.031532,-4.920849 -1.193088,7.238388 -4.991492,-2.690435 -8.125524,5.150859 -2.681841,-10.820988 -4.320163,9.402585 -10.807364,-0.07667 c -2.087034,0 -1.787893,-2.164198 0.372189,-4.328395 4.247116,-4.704779 12.52221,-12.685475 15.131005,-15.449097 1.33918,-1.380067 3.182729,-2.052676 5.026276,-2.035251 z m 33.931714,56.722191 c -2.574009,0.08713 -5.203678,1.376582 -5.875002,3.763821 0,1.564774 12.14654,2.463909 11.482167,-0.372897 -0.490452,-2.390724 -3.026197,-3.49199 -5.603686,-3.397895 v 0.007 z m -53.379404,6.778364 c -3.506219,0.205616 -7.262883,2.756651 -4.285379,5.26935 2.751408,2.390724 6.928957,-0.522752 8.268138,-3.878827 -0.834815,-1.101267 -2.386177,-1.484619 -3.975803,-1.387039 h -0.007 z m 46.015648,0.268346 c -3.429694,3.136519 0.591327,6.419408 3.944493,4.255209 0.897426,-0.602908 -0.07304,-3.502445 -3.944493,-4.255209 z"
     id="path4"
     style="stroke-width:3.48171" />
  <metadata
     id="metadata827">
    <rdf:RDF>
      <cc:Work
         rdf:about="">
        <dc:title>Inkscape icon</dc:title>
      </cc:Work>
    </rdf:RDF>
  </metadata>
</svg>
