<?xml version="1.0" encoding="UTF-8" standalone="no"?>
<svg
   width="256"
   height="256"
   viewBox="0 0 256 256"
   version="1.1"
   id="svg8"
   sodipodi:docname="linux.svg"
   inkscape:version="1.1.1 (3bf5ae0d25, 2021-09-20)"
   xmlns:inkscape="http://www.inkscape.org/namespaces/inkscape"
   xmlns:sodipodi="http://sodipodi.sourceforge.net/DTD/sodipodi-0.dtd"
   xmlns="http://www.w3.org/2000/svg"
   xmlns:svg="http://www.w3.org/2000/svg">
  <defs
     id="defs12" />
  <sodipodi:namedview
     id="namedview10"
     pagecolor="#505050"
     bordercolor="#eeeeee"
     borderopacity="1"
     inkscape:pageshadow="0"
     inkscape:pageopacity="0"
     inkscape:pagecheckerboard="0"
     showgrid="false"
     inkscape:zoom="1.8723959"
     inkscape:cx="91.593877"
     inkscape:cy="92.929065"
     inkscape:current-layer="svg8" />
  <path
     d="m 12.642,8.084 c -0.364,0.189 -0.79,0.42 -1.242,0.42 -0.452,0 -0.81,-0.209 -1.066,-0.413 C 10.204,7.99 10.1,7.889 10.021,7.815 9.884,7.707 9.901,7.556 9.957,7.561 c 0.094,0.012 0.108,0.136 0.168,0.191 0.08,0.075 0.18,0.172 0.302,0.269 0.243,0.192 0.567,0.38 0.973,0.38 0.406,0 0.878,-0.238 1.167,-0.4 0.163,-0.092 0.371,-0.256 0.541,-0.381 0.13,-0.095 0.125,-0.21 0.232,-0.198 0.107,0.013 0.028,0.127 -0.122,0.258 a 3.404,3.404 0 0 1 -0.576,0.404 z"
     id="path2" />
  <rect
     style="fill:#ffffff;stroke-width:3.27603"
     id="rect869"
     width="255.21582"
     height="256.01813"
     x="0.60615933"
     y="0.33794862"
     ry="40.470131" />
  <path
     d="m 222.24703,200.35722 c -1.7047,-1.9208 -2.50903,-5.47425 -3.37338,-9.25581 -0.86436,-3.78155 -1.83676,-7.85123 -4.93403,-10.49231 l -0.024,-0.0121 a 12.653201,12.653201 0 0 0 -3.80564,-2.30487 c 4.30977,-12.78525 2.62909,-25.52248 -1.74071,-37.02321 -5.33016,-14.12979 -14.67,-26.43485 -21.78892,-34.8503 C 178.60906,96.358468 170.81787,86.814545 170.96193,72.708748 171.21402,51.1839 173.32689,11.267493 135.45132,11.219473 a 55.942994,55.942994 0 0 0 -4.81397,0.204084 C 88.307943,14.820944 99.544561,59.539323 98.9083,74.50948 c -0.768316,10.948499 -2.989228,19.580047 -10.528326,30.28846 -8.835632,10.51632 -21.296754,27.55132 -27.203183,45.2706 -2.785144,8.36745 -4.105686,16.89095 -2.89319,24.97027 a 22.809375,22.809375 0 0 0 -1.092447,1.06843 c -2.593066,2.77315 -4.513857,6.13453 -6.662741,8.39146 -1.992818,2.00483 -4.837987,2.74912 -7.971274,3.87759 -3.133289,1.12846 -6.5667,2.77314 -8.655558,6.78279 l -0.01199,0.024 a 12.004935,12.004935 0 0 0 -1.296544,5.81047 c 0,1.84876 0.276114,3.73353 0.552227,5.53427 0.576237,3.75754 1.164479,7.311 0.384158,9.724 -2.473016,6.77078 -2.785145,11.45271 -1.044429,14.8501 1.752721,3.40941 5.330191,4.91002 9.399863,5.75036 8.115335,1.6927 19.111855,1.27253 27.779417,5.87042 l 0.744308,-1.40458 -0.732301,1.41658 c 9.279814,4.84999 18.691681,6.5667 26.194765,4.862 5.450245,-1.24851 9.856055,-4.48984 12.136985,-9.47189 5.87042,-0.024 12.30507,-2.50904 22.62934,-3.07327 6.99887,-0.56422 15.75047,2.48503 25.7986,1.92079 a 13.433522,13.433522 0 0 0 1.18849,3.16931 c 3.88959,7.7912 11.14058,11.35666 18.85976,10.75641 7.71916,-0.60024 15.95455,-5.16211 22.60528,-13.07337 l -1.2245,-1.02042 1.2245,1.00842 c 6.3266,-7.68316 16.84292,-10.86447 23.81779,-15.06619 3.48143,-2.10087 6.3026,-4.74195 6.53069,-8.55953 0.21609,-3.81756 -2.02884,-8.10332 -7.19096,-13.82968 z M 128.72859,59.803434 c -0.0361,-2.809156 0.43218,-5.222146 1.51262,-7.671153 1.08045,-2.449007 2.413,-4.213734 4.29778,-5.642321 1.88476,-1.428587 3.74553,-2.088857 5.93042,-2.112867 h 0.10805 c 2.14889,0 3.98564,0.636261 5.87041,2.004825 1.90879,1.392571 3.28935,3.133286 4.39381,5.558283 a 17.923367,17.923367 0 0 1 1.6927,7.635139 c 0.024,2.821158 -0.45619,5.222146 -1.52463,7.671154 a 14.766069,14.766069 0 0 1 -2.16089,3.589475 l -0.88836,-0.396164 c -1.06844,-0.456188 -2.00483,-0.82834 -2.84518,-1.152473 -0.84033,-0.324134 -1.4886,-0.528219 -2.17288,-0.768317 0.4922,-0.588242 1.4646,-1.296532 1.81274,-2.172892 a 11.320653,11.320653 0 0 0 0.86435,-4.165713 l 0.024,-0.192077 a 11.440703,11.440703 0 0 0 -0.60024,-4.045662 c -0.45619,-1.356558 -1.03243,-2.340962 -1.86077,-3.157297 -0.82834,-0.816336 -1.66868,-1.188489 -2.6771,-1.212499 h -0.13206 a 3.8895987,3.8895987 0 0 0 -2.60507,1.032423 7.4190496,7.4190496 0 0 0 -2.08886,3.001234 11.332658,11.332658 0 0 0 -0.86436,4.177717 l -0.0121,0.180083 a 11.908895,11.908895 0 0 0 0.16807,2.400987 29.568153,29.568153 0 0 0 -6.0865,-2.052843 20.180295,20.180295 0 0 1 -0.16807,-2.28094 v -0.228085 z m -25.73861,0.624256 c -0.14406,-2.424996 0.10804,-4.513857 0.76831,-6.674744 0.66027,-2.160888 1.56064,-3.733534 2.85718,-5.018063 a 6.1945462,6.1945462 0 0 1 4.18972,-2.016829 h 0.36015 c 1.41658,0 2.70111,0.4802 4.02165,1.524627 a 11.620776,11.620776 0 0 1 3.4094,4.669919 c 0.91238,2.052846 1.39258,4.117692 1.52463,6.542691 v 0.02394 a 18.127451,18.127451 0 0 1 -0.0239,2.917199 c -0.27612,0.07204 -0.55223,0.168064 -0.81634,0.252105 -1.53663,0.528216 -2.76113,1.116458 -3.93762,1.896779 a 10.14417,10.14417 0 0 0 0.036,-2.569056 v -0.144049 a 11.404688,11.404688 0 0 0 -0.8164,-3.289291 6.2785808,6.2785808 0 0 0 -1.65668,-2.437001 c -0.62426,-0.528217 -1.2005,-0.780321 -1.83676,-0.768317 l -0.20409,0.01209 c -0.7323,0.06001 -1.32055,0.408167 -1.88478,1.104455 a 6.4346448,6.4346448 0 0 0 -1.2125,2.677098 10.9485,10.9485 0 0 0 -0.22808,3.517447 l 0.0121,0.144052 c 0.12004,1.236507 0.37215,2.268933 0.80433,3.301357 a 6.3386054,6.3386054 0 0 0 1.99282,2.689104 c -0.70829,0.540224 -1.17649,0.936385 -1.75272,1.356559 l -1.32055,0.972399 a 11.94491,11.94491 0 0 1 -2.74913,-4.105689 18.34354,18.34354 0 0 1 -1.53663,-6.554692 z m 1.86076,14.742059 c 2.24493,-1.68069 3.78156,-2.809154 4.82599,-3.577469 1.03242,-0.756311 1.45259,-1.032426 1.77673,-1.344555 h 0.0121 c 1.68069,-1.58465 4.34578,-4.489843 8.39144,-5.882416 1.38058,-0.480199 2.94123,-0.780322 4.68196,-0.792326 3.30137,-0.01209 7.29901,1.068438 12.12499,4.177717 2.96522,1.92079 5.27017,2.088857 10.58835,4.35779 h 0.0121 c 2.55706,1.04443 4.05768,2.424997 4.78997,3.853584 0.7323,1.440594 0.75631,3.001235 0.14406,4.645912 -1.23651,3.277346 -5.15013,6.746773 -10.64838,8.463478 h -0.0121 c -2.6891,0.864354 -5.01806,2.797148 -7.76719,4.369795 a 17.39515,17.39515 0 0 1 -10.10817,2.605072 13.265452,13.265452 0 0 1 -4.48986,-0.996411 14.429931,14.429931 0 0 1 -3.24134,-2.004823 c -1.93279,-1.572646 -3.63749,-3.541457 -6.12251,-4.994052 h -0.0239 c -3.99765,-2.28094 -6.18255,-4.898013 -6.87883,-7.17895 -0.68428,-2.268934 -0.036,-4.213734 1.9448,-5.702346 z m 1.57265,156.280241 v 0.0121 c -0.56423,7.47907 -4.77797,11.53674 -11.260629,13.02535 -6.470661,1.47661 -15.246265,0 -23.997863,-4.57388 h -0.01209 c -9.699901,-5.12619 -21.224639,-4.62197 -28.619678,-6.17061 -3.69752,-0.76832 -6.110511,-1.9328 -7.22697,-4.09369 -1.104455,-2.16088 -1.128464,-5.93043 1.224502,-12.34107 l 0.012,-0.024 0.01199,-0.024 c 1.164501,-3.58961 0.300146,-7.51523 -0.252081,-11.21275 -0.564232,-3.68551 -0.840346,-7.0349 0.408168,-9.37585 l 0.01199,-0.024 c 1.620666,-3.10928 3.985637,-4.22574 6.914841,-5.27017 2.94121,-1.05644 6.410636,-1.88477 9.171772,-4.6339 l 0.01209,-0.0121 0.01209,-0.0121 c 2.545048,-2.6771 4.453831,-6.03848 6.68675,-8.42747 1.884774,-2.00481 3.76955,-3.34937 6.614718,-3.36137 h 0.108045 c 0.492202,0 1.02042,0.036 1.584651,0.13205 3.769551,0.56423 7.058901,3.21733 10.240209,7.50309 l 9.147766,16.67493 h 0.01209 c 2.424997,5.07809 7.575115,10.68438 11.932905,16.38674 4.345784,5.70233 7.731174,11.42869 7.286994,15.81049 z m -0.75631,-12.12498 a 80.685164,80.685164 0 0 0 -3.99764,-5.63031 161.67045,161.67045 0 0 0 -2.749135,-3.51745 c 1.812745,0 3.361385,-0.28812 4.609895,-0.86436 a 5.8343981,5.8343981 0 0 0 3.19331,-3.28934 c 1.08045,-2.9052 0,-6.99888 -3.45742,-11.68081 -3.481428,-4.68192 -9.339837,-9.96409 -17.935371,-15.23426 -6.326601,-3.93761 -9.856051,-8.75159 -11.512731,-13.98574 -1.656681,-5.23415 -1.428586,-10.88848 -0.156071,-16.48278 2.449008,-10.73241 8.751598,-21.15269 12.761248,-27.70739 1.080444,-0.79233 0.384157,1.47661 -4.069674,9.736 -3.985637,7.55111 -11.440703,24.98227 -1.236507,38.58386 a 80.69717,80.69717 0 0 1 6.458653,-28.78783 c 5.666329,-12.80926 17.479183,-35.0424 18.415573,-52.761699 0.4922,0.348144 2.16088,1.476606 2.89318,1.89678 2.1849,1.272522 3.79356,3.145291 5.90643,4.837987 2.12488,1.704702 4.75396,3.169304 8.75163,3.397398 l 1.11646,0.036 c 4.1177,0 7.32301,-1.344552 10.00012,-2.869178 2.90519,-1.656682 5.23415,-3.50544 7.41905,-4.213733 h 0.0121 c 4.64591,-1.464602 8.33142,-4.021651 10.43229,-7.022885 3.62548,14.237852 12.01694,34.77831 17.40715,44.81444 2.86918,5.31818 8.58353,16.62682 11.04455,30.25243 1.56063,-0.048 3.27734,0.18008 5.1261,0.64827 6.44665,-16.72289 -5.46224,-34.71828 -10.91248,-39.73634 -2.20892,-2.13687 -2.30496,-3.09727 -1.22451,-3.04925 5.90643,5.23415 13.67362,15.73847 16.49478,27.61135 1.28453,5.41423 1.56064,11.10456 0.19208,16.72288 0.67228,0.2761 1.35655,0.57623 2.05284,0.91236 10.34825,5.04209 14.17783,9.42388 12.32907,15.40234 -0.60025,-0.024 -1.2005,-0.0121 -1.77673,0 h -0.16806 c 1.50061,-4.74195 -1.81275,-8.24739 -10.67239,-12.24503 -9.17177,-4.03366 -16.48278,-3.6375 -17.71929,4.54987 a 15.630425,15.630425 0 0 0 -0.20409,1.30854 c -0.68428,0.2401 -1.36857,0.54022 -2.06485,0.91237 -4.29777,2.36497 -6.66274,6.63872 -7.97127,11.88488 -1.29654,5.24616 -1.6807,11.57276 -2.04085,18.70369 -0.22808,3.57747 -1.6927,8.42746 -3.19331,13.55357 -14.99416,10.76843 -35.84675,15.40233 -53.55405,3.31337 z m 115.58354,0.68428 c -6.29058,3.80557 -17.47919,7.11893 -24.61011,15.76248 -6.20655,7.38304 -13.75766,11.4287 -20.40839,11.95692 -6.66274,0.52821 -12.4011,-2.23293 -15.7865,-9.02771 v -0.0121 l -0.0121,-0.036 c -2.10086,-3.99764 -1.2245,-10.30023 0.54023,-16.95097 1.76472,-6.65073 4.30976,-13.48154 4.65791,-19.02782 v -0.0121 c 0.36015,-7.10692 0.75631,-13.32548 1.95681,-18.11545 1.20049,-4.78997 3.07326,-8.03129 6.39863,-9.85605 l 0.46819,-0.2401 c 0.37216,6.15854 3.4214,12.43711 8.81162,13.79367 5.89442,1.54864 14.39391,-3.50544 17.9834,-7.63513 0.72029,-0.024 1.41657,-0.072 2.10085,-0.084 3.1453,-0.072 5.77438,0.10804 8.4875,2.46101 v 0.0121 h 0.0121 c 2.07686,1.75271 3.06125,5.07808 3.9136,8.79961 0.85236,3.72153 1.53664,7.76719 4.1057,10.66038 h 0.0121 c 4.92202,5.47425 6.50668,9.17177 6.37462,11.52474 -0.13206,2.37697 -1.83676,4.1297 -5.00605,6.02648 z"
     id="path4"
     style="stroke-width:12.005" />
  <path
     d="m 11.738,6.762 c 0.015,0.048 0.093,0.04 0.138,0.063 0.04,0.02 0.071,0.065 0.116,0.066 0.042,0.001 0.107,-0.015 0.113,-0.057 C 12.113,6.778 12.032,6.743 11.979,6.723 11.912,6.697 11.826,6.684 11.763,6.719 11.749,6.727 11.733,6.746 11.738,6.762 Z m -0.46,0 C 11.262,6.81 11.184,6.802 11.139,6.825 11.1,6.845 11.068,6.89 11.024,6.891 10.982,6.892 10.916,6.876 10.91,6.834 10.903,6.778 10.984,6.743 11.036,6.723 c 0.067,-0.026 0.153,-0.039 0.217,-0.004 0.015,0.008 0.03,0.027 0.025,0.043 z"
     id="path6" />
</svg>
