<?xml version="1.0" encoding="UTF-8" standalone="no"?>
<svg
   width="24px"
   height="24px"
   viewBox="0 0 24 24"
   role="img"
   version="1.1"
   id="svg6"
   sodipodi:docname="photoshop.svg"
   inkscape:version="1.1.1 (3bf5ae0d25, 2021-09-20)"
   xmlns:inkscape="http://www.inkscape.org/namespaces/inkscape"
   xmlns:sodipodi="http://sodipodi.sourceforge.net/DTD/sodipodi-0.dtd"
   xmlns="http://www.w3.org/2000/svg"
   xmlns:svg="http://www.w3.org/2000/svg"
   xmlns:rdf="http://www.w3.org/1999/02/22-rdf-syntax-ns#"
   xmlns:cc="http://creativecommons.org/ns#"
   xmlns:dc="http://purl.org/dc/elements/1.1/">
  <defs
     id="defs10" />
  <sodipodi:namedview
     id="namedview8"
     pagecolor="#505050"
     bordercolor="#eeeeee"
     borderopacity="1"
     inkscape:pageshadow="0"
     inkscape:pageopacity="0"
     inkscape:pagecheckerboard="0"
     showgrid="false"
     inkscape:zoom="14.979167"
     inkscape:cx="11.883171"
     inkscape:cy="9.4130738"
     inkscape:current-layer="layer1" />
  <title
     id="title2">Adobe Photoshop icon</title>
  <metadata
     id="metadata827">
    <rdf:RDF>
      <cc:Work
         rdf:about="">
        <dc:title>Adobe Photoshop icon</dc:title>
      </cc:Work>
    </rdf:RDF>
  </metadata>
  <g
     inkscape:groupmode="layer"
     id="layer1"
     inkscape:label="Layer 1"
     style="display:inline;mix-blend-mode:normal">
    <path
       d="m 9.8503125,8.420234 c -0.37,-0.15 -0.77,-0.21 -1.18,-0.2 -0.26,0 -0.49,0 -0.68,0.01 -0.2,-0.01 -0.34,0 -0.41,0.01 v 3.36 c 0.14,0.01 0.27,0.02 0.39,0.02 h 0.53 c 0.39,0 0.78,-0.06 1.15,-0.18 0.32,-0.09 0.6000005,-0.28 0.8200005,-0.53 0.21,-0.25 0.31,-0.59 0.31,-1.0299997 0.01,-0.31 -0.07,-0.62 -0.23,-0.89 -0.17,-0.2600003 -0.41,-0.4600003 -0.7000005,-0.5700003 z m 9.8999995,-8.12 H 4.2503125 c -2.35,0 -4.25,1.9 -4.25,4.25 v 14.899 c 0,2.35 1.9,4.25 4.25,4.25 H 19.750312 c 2.35,0 4.25,-1.9 4.25,-4.25 v -14.899 c 0,-2.35 -1.9,-4.25 -4.25,-4.25 z m -7.390999,11.65 c -0.399,0.56 -0.959,0.98 -1.609,1.22 -0.68,0.25 -1.4300005,0.34 -2.2500005,0.34 -0.24,0 -0.4,0 -0.5,-0.01 -0.1,-0.01 -0.24,-0.01 -0.43,-0.01 v 3.209 c 0.01,0.07 -0.04,0.131 -0.11,0.141 h -1.94 c -0.08,0 -0.12,-0.041 -0.12,-0.131 v -10.289 c 0,-0.07 0.03,-0.11 0.1,-0.11 0.17,0 0.33,0 0.56,-0.01 0.24,-0.01 0.49,-0.01 0.76,-0.02 0.27,-0.01 0.56,-0.01 0.87,-0.02 0.31,-0.01 0.61,-0.01 0.91,-0.01 0.82,0 1.4999995,0.1 2.0599995,0.31 0.5,0.17 0.96,0.45 1.34,0.82 0.32,0.32 0.57,0.71 0.73,1.14 0.149,0.4200003 0.229,0.8500003 0.229,1.3000003 10e-4,0.8599997 -0.199,1.5699997 -0.599999,2.1299997 z m 7.090999,3.89 c -0.28,0.4 -0.671,0.709 -1.12,0.891 -0.49,0.209 -1.09,0.318 -1.811,0.318 -0.459,0 -0.91,-0.039 -1.359,-0.129 -0.35,-0.061 -0.7,-0.17 -1.02,-0.32 -0.07,-0.039 -0.121,-0.109 -0.111,-0.189 v -1.74 c 0,-0.029 0.011,-0.07 0.041,-0.09 0.029,-0.02 0.06,-0.01 0.09,0.01 0.39,0.23 0.8,0.391 1.24,0.49 0.379,0.1 0.779,0.15 1.18,0.15 0.38,0 0.65,-0.051 0.83,-0.141 0.16,-0.07 0.27,-0.24 0.27,-0.42 0,-0.141 -0.08,-0.27 -0.24,-0.4 -0.16,-0.129 -0.489,-0.279 -0.979,-0.471 -0.51,-0.18 -0.979,-0.42 -1.42,-0.719 -0.31,-0.221 -0.569,-0.51 -0.761,-0.85 -0.159,-0.32 -0.239,-0.67 -0.228999,-1.021 0,-0.43 0.119999,-0.84 0.340999,-1.21 0.25,-0.3999997 0.619,-0.7199997 1.049,-0.9199997 0.469001,-0.239 1.059,-0.3490003 1.769,-0.3490003 0.41,0 0.83,0.03 1.24,0.09 0.3,0.04 0.59,0.12 0.86,0.23 0.039,0.01 0.08,0.05 0.1,0.09 0.01,0.04 0.02,0.08 0.02,0.12 v 1.63 c 0,0.04 -0.02,0.08 -0.05,0.1 -0.09,0.02 -0.14,0.02 -0.18,0 -0.3,-0.16 -0.62,-0.27 -0.96,-0.34 -0.37,-0.08 -0.74,-0.13 -1.12,-0.13 -0.2,-0.01 -0.41,0.02 -0.601,0.07 -0.129,0.03 -0.24,0.1 -0.31,0.2 -0.05,0.08 -0.08,0.18 -0.08,0.27 0,0.09 0.04,0.18 0.101,0.26 0.09,0.11 0.209,0.2 0.34,0.27 0.229,0.12 0.47,0.23 0.709,0.33 0.541,0.18 1.061,0.43 1.541,0.73 0.33,0.209 0.6,0.49 0.789,0.83 0.16,0.318 0.24,0.67 0.23,1.029 0.011,0.471 -0.129,0.94 -0.389,1.331 z"
       id="path1031"
       style="fill:#001e36;fill-opacity:1;stroke:#ffffff;stroke-width:0.1;stroke-miterlimit:4;stroke-dasharray:none;stroke-opacity:1" />
    <path
       id="path1028"
       style="mix-blend-mode:normal;display:inline;fill:#31a8ff;fill-opacity:1;stroke:#31a8ff;stroke-width:0.2;stroke-miterlimit:4;stroke-dasharray:none;stroke-opacity:1"
       d="m 8.5996094,6.25 c -0.3,0 -0.6001563,-2.344e-4 -0.9101563,0.00977 -0.31,0.01 -0.5991406,0.00953 -0.8691406,0.019531 -0.27,0.01 -0.5197656,0.011484 -0.7597656,0.021484 -0.23,0.01 -0.3905469,0.00977 -0.5605469,0.00977 -0.07,0 -0.099609,0.039375 -0.099609,0.109375 v 10.289054 c 0,0.09 0.039141,0.13086 0.1191406,0.13086 h 1.9414063 c 0.07,-0.01 0.119375,-0.07062 0.109375,-0.140625 V 13.490234 C 7.7603125,13.490234 7.9,13.49 8,13.5 c 0.1,0.01 0.26,0.0098 0.5,0.0098 0.82,0 1.57,-0.08984 2.25,-0.339844 0.65,-0.24 1.210375,-0.660703 1.609375,-1.220703 0.401,-0.56 0.600609,-1.268907 0.599609,-2.1289065 0,-0.45 -0.07951,-0.8807813 -0.228515,-1.3007813 C 12.570469,8.0895313 12.32,7.7008594 12,7.3808594 11.62,7.0108594 11.160156,6.7305469 10.660156,6.5605469 10.100156,6.3505469 9.4196094,6.25 8.5996094,6.25 Z m 0.070312,1.9707031 c 0.41,-0.01 0.8096875,0.049219 1.1796875,0.1992188 0.2900001,0.11 0.5311721,0.3103125 0.7011721,0.5703125 0.16,0.27 0.238516,0.580625 0.228516,0.890625 0,0.4399996 -0.09859,0.7792966 -0.308594,1.0292966 -0.22,0.25 -0.5003129,0.439297 -0.8203129,0.529297 C 9.2803906,11.559453 8.89,11.619141 8.5,11.619141 H 7.9707031 c -0.12,0 -0.250625,-0.0095 -0.390625,-0.01953 V 8.2402344 c 0.07,-0.01 0.2101563,-0.019766 0.4101563,-0.00977 0.19,-0.01 0.4196875,-0.00977 0.6796875,-0.00977 z m 8.5410156,0.5097657 c -0.71,0 -1.300531,0.1086562 -1.769531,0.3476562 -0.43,0.2 -0.798828,0.5199219 -1.048828,0.9199219 -0.221,0.3700001 -0.341797,0.7809371 -0.341797,1.2109371 -0.01,0.351 0.06952,0.701485 0.228516,1.021485 0.192,0.34 0.451719,0.628609 0.761719,0.849609 0.441,0.299 0.909922,0.53875 1.419921,0.71875 0.489999,0.192 0.818516,0.341703 0.978516,0.470703 0.16,0.13 0.240234,0.259391 0.240234,0.400391 -1e-6,0.18 -0.109532,0.349922 -0.269532,0.419922 -0.18,0.09 -0.450078,0.140625 -0.830078,0.140625 -0.401,0 -0.800687,-0.05039 -1.179687,-0.150391 -0.44,-0.099 -0.850235,-0.258281 -1.240235,-0.488281 -0.03,-0.02 -0.06084,-0.03172 -0.08984,-0.01172 -0.03,0.02 -0.04101,0.0628 -0.04101,0.0918 v 1.738281 c -0.01,0.08 0.04133,0.150453 0.111328,0.189453 0.32,0.15 0.669531,0.259313 1.019531,0.320313 0.449,0.09 0.900375,0.128906 1.359375,0.128906 0.721,0 1.320548,-0.109359 1.810547,-0.318359 0.449001,-0.182 0.839142,-0.490625 1.119141,-0.890625 0.26,-0.391 0.401625,-0.859078 0.390625,-1.330078 0.01,-0.359 -0.07047,-0.711297 -0.230469,-1.029297 -0.189,-0.34 -0.459063,-0.621078 -0.789063,-0.830078 -0.48,-0.3 -1.000015,-0.550469 -1.541015,-0.730469 -0.239,-0.1 -0.479985,-0.210078 -0.708985,-0.330078 -0.131,-0.07 -0.249842,-0.159532 -0.339842,-0.269532 -0.061,-0.08 -0.101563,-0.169765 -0.101563,-0.259765 0,-0.09 0.03008,-0.191484 0.08008,-0.271485 0.07,-0.1 0.181546,-0.169218 0.310547,-0.199218 0.191,-0.05 0.39961,-0.08031 0.599609,-0.07031 0.38,0 0.751094,0.05086 1.121093,0.13086 0.34,0.07 0.658985,0.179843 0.958985,0.339843 0.04,0.02 0.09164,0.02 0.18164,0 0.03,-0.02 0.04883,-0.05961 0.04883,-0.09961 V 9.2597656 c -1e-6,-0.04 -0.0095,-0.079141 -0.01953,-0.1191406 -0.02,-0.04 -0.06061,-0.079844 -0.09961,-0.089844 -0.27,-0.1099999 -0.561328,-0.1904687 -0.861328,-0.2304687 -0.41,-0.06 -0.828281,-0.089844 -1.238281,-0.089844 z" />
  </g>
</svg>
