<?xml version="1.0" encoding="UTF-8" standalone="no"?>
<svg
   id="prefix__Layer_1"
   viewBox="0 0 305.51675 139.51932"
   version="1.1"
   sodipodi:docname="gRPC-logo (2).svg"
   width="305.51675"
   height="139.51932"
   inkscape:version="1.3.2 (091e20e, 2023-11-25, custom)"
   xmlns:inkscape="http://www.inkscape.org/namespaces/inkscape"
   xmlns:sodipodi="http://sodipodi.sourceforge.net/DTD/sodipodi-0.dtd"
   xmlns="http://www.w3.org/2000/svg"
   xmlns:svg="http://www.w3.org/2000/svg">
  <sodipodi:namedview
     id="namedview138"
     pagecolor="#505050"
     bordercolor="#eeeeee"
     borderopacity="1"
     inkscape:showpageshadow="0"
     inkscape:pageopacity="0"
     inkscape:pagecheckerboard="0"
     inkscape:deskcolor="#d1d1d1"
     inkscape:zoom="1.9638858"
     inkscape:cx="137.73713"
     inkscape:cy="83.762508"
     inkscape:current-layer="prefix__Layer_1" />
  <style
     id="style1">.prefix__st0{fill:#fff}.prefix__st2,.prefix__st3{clip-path:url(#prefix__SVGID_2_);fill:#73cbcb}.prefix__st3{fill:#72cbca}.prefix__st5{fill:#70caca}.prefix__st5,.prefix__st57,.prefix__st59,.prefix__st63,.prefix__st8{clip-path:url(#prefix__SVGID_2_)}.prefix__st8{fill:#6dc9c9}.prefix__st57{fill:#00b5b2}.prefix__st59{fill:#00b3b0}.prefix__st63{fill:#00b0ad}.prefix__st120,.prefix__st121,.prefix__st70{clip-path:url(#prefix__SVGID_4_)}.prefix__st70{fill:#6fcac9}.prefix__st120{fill:#00bab8}.prefix__st121{fill:#00b9b7}.prefix__st126{fill:#00b7b4}.prefix__st126,.prefix__st128,.prefix__st129{clip-path:url(#prefix__SVGID_4_)}.prefix__st128{fill:#00b6b3}.prefix__st129{fill:#00b5b2}</style>
  <rect
     style="fill:#f9f9f9;stroke-width:0"
     id="rect138"
     width="305.51675"
     height="139.51932"
     x="0"
     y="0"
     ry="19.183905" />
  <path
     class="prefix__st0"
     d="m 43.023503,110.84611 c 2.026,2.725 4.664,4.908 7.912,6.55 3.25,1.641 6.865,2.463 10.848,2.463 3.493,0 6.462,-0.508 8.908,-1.52 2.445,-1.013 4.418,-2.393 5.921,-4.14 1.502,-1.747 2.584,-3.79 3.25,-6.13 0.662,-2.342 0.995,-4.84 0.995,-7.493 v -8.803997 h -0.21 c -2.236,3.353 -4.962,5.73 -8.174,7.127 -3.215,1.397997 -6.603,2.095997 -10.166,2.095997 -3.564,0 -6.9,-0.63 -10.009,-1.886997 -3.11,-1.258 -5.817,-2.987 -8.122,-5.187 -2.306,-2.202 -4.123,-4.838 -5.45,-7.913 -1.328,-3.074 -1.991,-6.393 -1.991,-9.956 0,-3.563 0.629,-6.882 1.886,-9.957 1.258,-3.074 2.987,-5.764 5.188,-8.07 2.2,-2.305 4.82,-4.103 7.86,-5.397 3.04,-1.292 6.376,-1.94 10.01,-1.94 1.466,0 3.02,0.142 4.663,0.42 1.64,0.28 3.283,0.77 4.925,1.468 1.641,0.698 3.266,1.66 4.874,2.881 1.606,1.224 3.108,2.778 4.507,4.664 h 0.209 v -8.174 h 6.917 v 48.629997 c 0,2.654 -0.332,5.483 -0.996,8.488 -0.664,3.003 -1.956,5.765 -3.877,8.28 -1.923,2.515 -4.595,4.612 -8.018,6.289 -3.424,1.676 -7.896,2.514 -13.415,2.514 -4.891,0 -9.259,-0.804 -13.1,-2.41 -3.843,-1.608 -7.336,-4.088 -10.48,-7.441 l 5.135,-5.45 z m 1.257,-35.003997 c 0,2.585 0.472,5.014 1.416,7.283 0.943,2.272 2.235,4.264 3.877,5.974 a 18.75,18.75 0 0 0 5.764,4.088 c 2.201,1.013 4.594,1.52 7.18,1.52 2.515,0 4.907,-0.454 7.179,-1.363 a 19.02,19.02 0 0 0 6.025,-3.825 c 1.746,-1.64 3.092,-3.616 4.036,-5.922 0.943,-2.305 1.378,-4.89 1.31,-7.755 0,-2.584 -0.42,-5.013 -1.258,-7.284 -0.838,-2.27 -2.062,-4.261 -3.668,-5.974 -1.608,-1.711 -3.564,-3.074 -5.87,-4.087 -2.305,-1.012 -4.89,-1.52 -7.754,-1.52 -2.586,0 -4.979,0.508 -7.18,1.52 a 18.803,18.803 0 0 0 -5.764,4.087 c -1.642,1.713 -2.934,3.704 -3.877,5.974 -0.944,2.271 -1.416,4.7 -1.416,7.284 z M 115.9655,100.99511 h -7.545 V 26.794113 h 22.845 c 7.546,0 13.502,1.642 17.87,4.925 4.366,3.285 6.55,8.246 6.55,14.883 0,5.171 -1.624,9.52 -4.873,13.048 -3.25,3.529 -7.949,5.572 -14.096,6.13 l 21.38,35.214997 h -9.224 l -20.331,-34.479997 h -12.576 z m 0,-41.397997 h 13.415 c 3.354,0 6.2,-0.348 8.541,-1.048 2.34,-0.697 4.21,-1.624 5.608,-2.777 1.396,-1.153 2.41,-2.515 3.039,-4.087 0.629,-1.572 0.943,-3.266 0.943,-5.083 0,-1.746 -0.314,-3.407 -0.943,-4.978 -0.629,-1.573 -1.643,-2.952 -3.04,-4.14 -1.398,-1.187 -3.266,-2.113 -5.607,-2.778 -2.341,-0.663 -5.187,-0.995 -8.54,-0.995 h -13.416 z m 55.126,-32.803 h 21.59 c 7.545,0 13.501,1.642 17.868,4.925 4.366,3.285 6.55,8.246 6.55,14.883 0,6.638 -2.184,11.616 -6.55,14.934 -4.367,3.32 -10.323,4.978 -17.868,4.978 h -14.044 v 34.479997 h -7.546 z m 7.546,32.803 h 12.158 c 3.353,0 6.199,-0.348 8.54,-1.048 2.34,-0.697 4.21,-1.624 5.608,-2.777 1.397,-1.153 2.41,-2.515 3.039,-4.087 0.629,-1.572 0.943,-3.266 0.943,-5.083 0,-1.746 -0.314,-3.407 -0.943,-4.978 -0.63,-1.573 -1.642,-2.952 -3.039,-4.14 -1.399,-1.187 -3.267,-2.113 -5.607,-2.778 -2.342,-0.663 -5.189,-0.995 -8.541,-0.995 h -12.158 z m 114.234,29.66 c -1.258,1.886 -2.813,3.668 -4.663,5.345 -1.853,1.677 -3.966,3.127 -6.341,4.349 -2.376,1.222997 -4.944,2.182997 -7.703,2.881997 -2.76,0.698 -5.678,1.048 -8.752,1.048 -5.52,0 -10.637,-0.98 -15.353,-2.933997 -4.717,-1.955 -8.803,-4.664 -12.262,-8.123 -3.458,-3.459 -6.167,-7.562 -8.122,-12.314 -1.958,-4.75 -2.935,-9.956 -2.935,-15.616 0,-5.66 0.977,-10.863 2.935,-15.615 1.955,-4.751 4.664,-8.856 8.122,-12.315 3.458,-3.459 7.545,-6.165 12.262,-8.122 4.716,-1.956 9.834,-2.935 15.353,-2.935 4.612,0 9.224,0.909 13.835,2.725 4.61,1.818 8.558,4.821 11.842,9.013 l -6.602,4.926 c -0.77,-1.187 -1.818,-2.375 -3.145,-3.563 -1.328,-1.188 -2.847,-2.235 -4.558,-3.144 a 28.463,28.463 0 0 0 -5.502,-2.201 21.29,21.29 0 0 0 -5.87,-0.839 c -4.751,0 -9.013,0.875 -12.785,2.62 -3.773,1.748 -6.97,4.088 -9.59,7.022 -2.62,2.935 -4.63,6.34 -6.027,10.219 -1.397,3.877 -2.095,7.948 -2.095,12.21 0,4.262 0.698,8.331 2.096,12.208 1.396,3.879 3.406,7.284 6.027,10.219 2.62,2.935 5.816,5.276 9.589,7.022 3.772,1.747 8.034,2.62 12.785,2.62 1.956,0 3.895,-0.174 5.817,-0.524 a 24.167,24.167 0 0 0 5.66,-1.781 c 1.85,-0.839 3.597,-1.974 5.24,-3.407 1.641,-1.43 3.16,-3.23 4.558,-5.397 z"
     id="path1"
     style="fill:#1a1a1a" />
  <defs
     id="defs1">
    <path
       d="M 8.46,9.703 H 35.995 V 37.238 H 8.46 Z"
       id="prefix__SVGID_1_"
       transform="rotate(-135.213,22.227,23.47)" />
  </defs>
  <clipPath
     id="prefix__SVGID_2_">
    <use
       overflow="visible"
       href="#prefix__SVGID_1_"
       id="use1" />
  </clipPath>
  <path
     clip-path="url(#prefix__SVGID_2_)"
     d="M 3.102,4 2.757,7.05 V 4 Z"
     fill="#74cbcb"
     id="path2"
     transform="translate(9.1655025,8.1471128)" />
  <path
     class="prefix__st2"
     d="m 3.557,4 -0.8,7.078 V 7.049 L 3.102,4 Z M 4.012,4 2.757,15.107 V 11.078 L 3.557,4 Z"
     clip-path="url(#prefix__SVGID_2_)"
     id="path3"
     transform="translate(9.1655025,8.1471128)" />
  <path
     class="prefix__st3"
     d="M 4.467,4 2.757,19.135 V 15.107 L 4.012,4 Z M 4.923,4 2.757,23.164 V 19.135 L 4.467,4 Z"
     clip-path="url(#prefix__SVGID_2_)"
     id="path4"
     transform="translate(9.1655025,8.1471128)" />
  <path
     clip-path="url(#prefix__SVGID_2_)"
     d="M 5.378,4 2.758,27.193 V 23.164 L 4.922,4 Z"
     fill="#71caca"
     id="path5"
     transform="translate(9.1655025,8.1471128)" />
  <path
     class="prefix__st5"
     d="M 5.833,4 2.757,31.222 v -4.03 L 5.377,4 Z"
     clip-path="url(#prefix__SVGID_2_)"
     id="path6"
     transform="translate(9.1655025,8.1471128)" />
  <path
     class="prefix__st5"
     d="M 6.288,4 2.758,35.25 V 31.222 L 5.832,4 Z"
     clip-path="url(#prefix__SVGID_2_)"
     id="path7"
     transform="translate(9.1655025,8.1471128)" />
  <path
     clip-path="url(#prefix__SVGID_2_)"
     d="M 6.743,4 2.757,39.279 V 35.25 L 6.288,4 Z"
     fill="#6fcac9"
     id="path8"
     transform="translate(9.1655025,8.1471128)" />
  <path
     clip-path="url(#prefix__SVGID_2_)"
     d="M 7.199,4 2.8,42.916 2.756,42.911 V 39.28 L 6.743,4 Z"
     fill="#6ecac9"
     id="path9"
     transform="translate(9.1655025,8.1471128)" />
  <path
     class="prefix__st8"
     d="m 7.654,4 -4.4,38.94 H 3.012 L 2.802,42.916 7.197,4 Z"
     clip-path="url(#prefix__SVGID_2_)"
     id="path10"
     transform="translate(9.1655025,8.1471128)" />
  <path
     class="prefix__st8"
     d="m 8.109,4 -4.4,38.94 H 3.254 L 7.654,4 Z"
     clip-path="url(#prefix__SVGID_2_)"
     id="path11"
     transform="translate(9.1655025,8.1471128)" />
  <path
     clip-path="url(#prefix__SVGID_2_)"
     d="m 8.564,4 -4.4,38.94 H 3.71 L 8.11,4 Z"
     fill="#6cc9c8"
     id="path12"
     transform="translate(9.1655025,8.1471128)" />
  <path
     clip-path="url(#prefix__SVGID_2_)"
     d="M 9.02,4 4.62,42.94 H 4.164 L 8.564,4 Z"
     fill="#6bc9c8"
     id="path13"
     transform="translate(9.1655025,8.1471128)" />
  <path
     clip-path="url(#prefix__SVGID_2_)"
     d="m 9.475,4 -4.4,38.94 H 4.62 L 9.02,4 Z"
     fill="#6ac9c8"
     id="path14"
     transform="translate(9.1655025,8.1471128)" />
  <path
     clip-path="url(#prefix__SVGID_2_)"
     d="M 9.93,4 5.53,42.94 H 5.075 L 9.475,4 Z"
     fill="#69c8c8"
     id="path15"
     transform="translate(9.1655025,8.1471128)" />
  <path
     clip-path="url(#prefix__SVGID_2_)"
     d="m 10.385,4 -4.4,38.94 H 5.53 L 9.93,4 Z"
     fill="#68c8c7"
     id="path16"
     transform="translate(9.1655025,8.1471128)" />
  <path
     clip-path="url(#prefix__SVGID_2_)"
     d="M 10.84,4 6.44,42.94 H 5.985 L 10.385,4 Z"
     fill="#67c8c7"
     id="path17"
     transform="translate(9.1655025,8.1471128)" />
  <path
     clip-path="url(#prefix__SVGID_2_)"
     d="m 11.295,4 -4.4,38.94 H 6.44 L 10.84,4 Z"
     fill="#66c7c7"
     id="path18"
     transform="translate(9.1655025,8.1471128)" />
  <path
     clip-path="url(#prefix__SVGID_2_)"
     d="M 11.75,4 7.35,42.94 H 6.896 L 11.296,4 Z"
     fill="#65c7c6"
     id="path19"
     transform="translate(9.1655025,8.1471128)" />
  <path
     clip-path="url(#prefix__SVGID_2_)"
     d="m 12.206,4 -4.4,38.94 H 7.351 L 11.75,4 Z"
     fill="#64c7c6"
     id="path20"
     transform="translate(9.1655025,8.1471128)" />
  <path
     clip-path="url(#prefix__SVGID_2_)"
     d="m 12.661,4 -4.4,38.94 H 7.806 L 12.206,4 Z"
     fill="#62c7c6"
     id="path21"
     transform="translate(9.1655025,8.1471128)" />
  <path
     clip-path="url(#prefix__SVGID_2_)"
     d="m 13.116,4 -4.4,38.94 H 8.261 L 12.661,4 Z"
     fill="#61c6c6"
     id="path22"
     transform="translate(9.1655025,8.1471128)" />
  <path
     clip-path="url(#prefix__SVGID_2_)"
     d="m 13.572,4 -4.4,38.94 H 8.716 L 13.116,4 Z"
     fill="#60c6c5"
     id="path23"
     transform="translate(9.1655025,8.1471128)" />
  <path
     clip-path="url(#prefix__SVGID_2_)"
     d="m 14.027,4 -4.4,38.94 H 9.172 L 13.572,4 Z"
     fill="#5ec6c5"
     id="path24"
     transform="translate(9.1655025,8.1471128)" />
  <path
     clip-path="url(#prefix__SVGID_2_)"
     d="m 14.482,4 -4.4,38.94 H 9.627 L 14.027,4 Z"
     fill="#5dc5c5"
     id="path25"
     transform="translate(9.1655025,8.1471128)" />
  <path
     clip-path="url(#prefix__SVGID_2_)"
     d="m 14.937,4 -4.4,38.94 H 10.082 L 14.482,4 Z"
     fill="#5bc5c4"
     id="path26"
     transform="translate(9.1655025,8.1471128)" />
  <path
     clip-path="url(#prefix__SVGID_2_)"
     d="m 15.392,4 -4.4,38.94 H 10.537 L 14.937,4 Z"
     fill="#5ac5c4"
     id="path27"
     transform="translate(9.1655025,8.1471128)" />
  <path
     clip-path="url(#prefix__SVGID_2_)"
     d="m 15.848,4 -4.4,38.94 H 10.992 L 15.392,4 Z"
     fill="#58c4c3"
     id="path28"
     transform="translate(9.1655025,8.1471128)" />
  <path
     clip-path="url(#prefix__SVGID_2_)"
     d="m 16.303,4 -4.4,38.94 H 11.448 L 15.848,4 Z"
     fill="#57c4c3"
     id="path29"
     transform="translate(9.1655025,8.1471128)" />
  <path
     clip-path="url(#prefix__SVGID_2_)"
     d="m 16.758,4 -4.4,38.94 H 11.903 L 16.303,4 Z"
     fill="#55c4c3"
     id="path30"
     transform="translate(9.1655025,8.1471128)" />
  <path
     clip-path="url(#prefix__SVGID_2_)"
     d="m 17.213,4 -4.4,38.94 H 12.358 L 16.758,4 Z"
     fill="#53c3c2"
     id="path31"
     transform="translate(9.1655025,8.1471128)" />
  <path
     clip-path="url(#prefix__SVGID_2_)"
     d="m 17.668,4 -4.4,38.94 H 12.813 L 17.213,4 Z"
     fill="#51c3c2"
     id="path32"
     transform="translate(9.1655025,8.1471128)" />
  <path
     clip-path="url(#prefix__SVGID_2_)"
     d="m 18.123,4 -4.4,38.94 H 13.269 L 17.669,4 Z"
     fill="#4fc3c1"
     id="path33"
     transform="translate(9.1655025,8.1471128)" />
  <path
     clip-path="url(#prefix__SVGID_2_)"
     d="m 18.579,4 -4.4,38.94 H 13.724 L 18.124,4 Z"
     fill="#4dc2c1"
     id="path34"
     transform="translate(9.1655025,8.1471128)" />
  <path
     clip-path="url(#prefix__SVGID_2_)"
     d="m 19.034,4 -4.4,38.94 H 14.179 L 18.579,4 Z"
     fill="#4bc2c0"
     id="path35"
     transform="translate(9.1655025,8.1471128)" />
  <path
     clip-path="url(#prefix__SVGID_2_)"
     d="m 19.49,4 -4.4,38.94 H 14.634 L 19.034,4 Z"
     fill="#49c1c0"
     id="path36"
     transform="translate(9.1655025,8.1471128)" />
  <path
     clip-path="url(#prefix__SVGID_2_)"
     d="m 19.944,4 -4.4,38.94 H 15.089 L 19.49,4 Z"
     fill="#46c1c0"
     id="path37"
     transform="translate(9.1655025,8.1471128)" />
  <path
     clip-path="url(#prefix__SVGID_2_)"
     d="M 20.4,4 16,42.94 H 15.545 L 19.945,4 Z"
     fill="#44c0bf"
     id="path38"
     transform="translate(9.1655025,8.1471128)" />
  <path
     clip-path="url(#prefix__SVGID_2_)"
     d="m 20.855,4 -4.4,38.94 H 16 L 20.4,4 Z"
     fill="#41c0bf"
     id="path39"
     transform="translate(9.1655025,8.1471128)" />
  <path
     clip-path="url(#prefix__SVGID_2_)"
     d="m 21.31,4 -4.4,38.94 H 16.455 L 20.855,4 Z"
     fill="#3ec0be"
     id="path40"
     transform="translate(9.1655025,8.1471128)" />
  <path
     clip-path="url(#prefix__SVGID_2_)"
     d="m 21.765,4 -4.4,38.94 H 16.91 L 21.31,4 Z"
     fill="#3bbfbe"
     id="path41"
     transform="translate(9.1655025,8.1471128)" />
  <path
     clip-path="url(#prefix__SVGID_2_)"
     d="m 22.22,4 -4.4,38.94 H 17.365 L 21.765,4 Z"
     fill="#38bfbd"
     id="path42"
     transform="translate(9.1655025,8.1471128)" />
  <path
     clip-path="url(#prefix__SVGID_2_)"
     d="m 22.676,4 -4.4,38.94 H 17.821 L 22.22,4 Z"
     fill="#34bebd"
     id="path43"
     transform="translate(9.1655025,8.1471128)" />
  <path
     clip-path="url(#prefix__SVGID_2_)"
     d="m 23.13,4 -4.4,38.94 H 18.276 L 22.676,4 Z"
     fill="#30bebc"
     id="path44"
     transform="translate(9.1655025,8.1471128)" />
  <path
     clip-path="url(#prefix__SVGID_2_)"
     d="m 23.586,4 -4.4,38.94 H 18.731 L 23.13,4 Z"
     fill="#2cbdbb"
     id="path45"
     transform="translate(9.1655025,8.1471128)" />
  <path
     clip-path="url(#prefix__SVGID_2_)"
     d="m 24.041,4 -4.4,38.94 H 19.186 L 23.586,4 Z"
     fill="#27bdbb"
     id="path46"
     transform="translate(9.1655025,8.1471128)" />
  <path
     clip-path="url(#prefix__SVGID_2_)"
     d="m 24.496,4 -4.4,38.94 H 19.641 L 24.041,4 Z"
     fill="#21bcba"
     id="path47"
     transform="translate(9.1655025,8.1471128)" />
  <path
     clip-path="url(#prefix__SVGID_2_)"
     d="m 24.952,4 -4.4,38.94 H 20.097 L 24.496,4 Z"
     fill="#1abcba"
     id="path48"
     transform="translate(9.1655025,8.1471128)" />
  <path
     clip-path="url(#prefix__SVGID_2_)"
     d="m 25.407,4 -4.4,38.94 H 20.552 L 24.952,4 Z"
     fill="#10bbb9"
     id="path49"
     transform="translate(9.1655025,8.1471128)" />
  <path
     clip-path="url(#prefix__SVGID_2_)"
     d="m 25.862,4 -4.4,38.94 H 21.007 L 25.407,4 Z"
     fill="#00bbb9"
     id="path50"
     transform="translate(9.1655025,8.1471128)" />
  <path
     clip-path="url(#prefix__SVGID_2_)"
     d="m 26.317,4 -4.4,38.94 H 21.462 L 25.862,4 Z"
     fill="#00bab8"
     id="path51"
     transform="translate(9.1655025,8.1471128)" />
  <path
     clip-path="url(#prefix__SVGID_2_)"
     d="m 26.772,4 -4.4,38.94 H 21.917 L 26.317,4 Z"
     fill="#00bab7"
     id="path52"
     transform="translate(9.1655025,8.1471128)" />
  <path
     clip-path="url(#prefix__SVGID_2_)"
     d="m 27.228,4 -4.4,38.94 H 22.373 L 26.773,4 Z"
     fill="#00b9b7"
     id="path53"
     transform="translate(9.1655025,8.1471128)" />
  <path
     clip-path="url(#prefix__SVGID_2_)"
     d="m 27.683,4 -4.4,38.94 H 22.828 L 27.228,4 Z"
     fill="#00b9b6"
     id="path54"
     transform="translate(9.1655025,8.1471128)" />
  <path
     clip-path="url(#prefix__SVGID_2_)"
     d="m 28.138,4 -4.4,38.94 H 23.283 L 27.683,4 Z"
     fill="#00b8b6"
     id="path55"
     transform="translate(9.1655025,8.1471128)" />
  <path
     clip-path="url(#prefix__SVGID_2_)"
     d="m 28.593,4 -4.4,38.94 H 23.738 L 28.138,4 Z"
     fill="#00b7b5"
     id="path56"
     transform="translate(9.1655025,8.1471128)" />
  <path
     clip-path="url(#prefix__SVGID_2_)"
     d="m 29.049,4 -4.4,38.94 H 24.193 L 28.593,4 Z"
     fill="#00b7b4"
     id="path57"
     transform="translate(9.1655025,8.1471128)" />
  <path
     clip-path="url(#prefix__SVGID_2_)"
     d="m 29.504,4 -4.4,38.94 H 24.649 L 29.049,4 Z"
     fill="#00b6b4"
     id="path58"
     transform="translate(9.1655025,8.1471128)" />
  <path
     clip-path="url(#prefix__SVGID_2_)"
     d="m 29.959,4 -4.4,38.94 H 25.104 L 29.504,4 Z"
     fill="#00b6b3"
     id="path59"
     transform="translate(9.1655025,8.1471128)" />
  <path
     class="prefix__st57"
     d="m 30.414,4 -4.4,38.94 H 25.559 L 29.959,4 Z"
     clip-path="url(#prefix__SVGID_2_)"
     id="path60"
     transform="translate(9.1655025,8.1471128)" />
  <path
     class="prefix__st57"
     d="m 30.87,4 -4.4,38.94 H 26.014 L 30.414,4 Z"
     clip-path="url(#prefix__SVGID_2_)"
     id="path61"
     transform="translate(9.1655025,8.1471128)" />
  <path
     clip-path="url(#prefix__SVGID_2_)"
     d="m 31.325,4 -4.4,38.94 H 26.469 L 30.87,4 Z"
     fill="#00b4b1"
     id="path62"
     transform="translate(9.1655025,8.1471128)" />
  <path
     class="prefix__st59"
     d="m 31.78,4 -4.4,38.94 H 26.925 L 31.325,4 Z"
     clip-path="url(#prefix__SVGID_2_)"
     id="path63"
     transform="translate(9.1655025,8.1471128)" />
  <path
     class="prefix__st59"
     d="m 32.235,4 -4.4,38.94 H 27.38 L 31.78,4 Z"
     clip-path="url(#prefix__SVGID_2_)"
     id="path64"
     transform="translate(9.1655025,8.1471128)" />
  <path
     clip-path="url(#prefix__SVGID_2_)"
     d="m 32.69,4 -4.4,38.94 H 27.835 L 32.235,4 Z"
     fill="#00b2af"
     id="path65"
     transform="translate(9.1655025,8.1471128)" />
  <path
     clip-path="url(#prefix__SVGID_2_)"
     d="m 33.145,4 -4.4,38.94 H 28.29 L 32.69,4 Z"
     fill="#00b2ae"
     id="path66"
     transform="translate(9.1655025,8.1471128)" />
  <path
     clip-path="url(#prefix__SVGID_2_)"
     d="M 33.6,4 29.2,42.94 H 28.745 L 33.145,4 Z"
     fill="#00b1ad"
     id="path67"
     transform="translate(9.1655025,8.1471128)" />
  <path
     class="prefix__st63"
     d="m 34.056,4 -4.4,38.94 H 29.201 L 33.6,4 Z"
     clip-path="url(#prefix__SVGID_2_)"
     id="path68"
     transform="translate(9.1655025,8.1471128)" />
  <path
     class="prefix__st63"
     d="m 41.442,4 0.255,0.029 V 42.94 H 29.656 L 34.056,4 Z"
     clip-path="url(#prefix__SVGID_2_)"
     id="path69"
     transform="translate(9.1655025,8.1471128)" />
  <defs
     id="defs69">
    <path
       d="m 67.358,15.165 h 16.15 v 16.15 h -16.15 z"
       id="prefix__SVGID_3_"
       transform="rotate(-135.213,75.433,23.24)" />
  </defs>
  <clipPath
     id="prefix__SVGID_4_">
    <use
       overflow="visible"
       href="#prefix__SVGID_3_"
       id="use69" />
  </clipPath>
  <path
     clip-path="url(#prefix__SVGID_4_)"
     d="m 86.853,18.491 -0.31,-6.671 h 0.31 z"
     fill="#74cbcb"
     id="path70"
     transform="translate(9.1655025,8.1471128)" />
  <path
     clip-path="url(#prefix__SVGID_4_)"
     d="M 86.853,25.501 86.216,11.82 h 0.327 l 0.31,6.671 z"
     fill="#73cbcb"
     id="path71"
     transform="translate(9.1655025,8.1471128)" />
  <path
     clip-path="url(#prefix__SVGID_4_)"
     d="M 86.853,32.511 85.89,11.82 h 0.326 l 0.637,13.681 z"
     fill="#73cbca"
     id="path72"
     transform="translate(9.1655025,8.1471128)" />
  <path
     clip-path="url(#prefix__SVGID_4_)"
     d="M 86.627,34.66 85.563,11.82 h 0.327 l 0.963,20.691 v 2.15 z"
     fill="#72cbca"
     id="path73"
     transform="translate(9.1655025,8.1471128)" />
  <path
     clip-path="url(#prefix__SVGID_4_)"
     d="M 86.3,34.66 85.237,11.82 h 0.326 l 1.064,22.84 z"
     fill="#71caca"
     id="path74"
     transform="translate(9.1655025,8.1471128)" />
  <path
     clip-path="url(#prefix__SVGID_4_)"
     d="M 85.974,34.66 84.91,11.82 h 0.327 L 86.3,34.66 Z"
     fill="#70caca"
     id="path75"
     transform="translate(9.1655025,8.1471128)" />
  <path
     class="prefix__st70"
     d="M 85.648,34.66 84.584,11.82 h 0.326 l 1.064,22.84 z"
     clip-path="url(#prefix__SVGID_4_)"
     id="path76"
     transform="translate(9.1655025,8.1471128)" />
  <path
     class="prefix__st70"
     d="M 85.321,34.66 84.257,11.82 h 0.327 l 1.064,22.84 z"
     clip-path="url(#prefix__SVGID_4_)"
     id="path77"
     transform="translate(9.1655025,8.1471128)" />
  <path
     clip-path="url(#prefix__SVGID_4_)"
     d="M 84.995,34.66 83.93,11.82 h 0.326 l 1.064,22.84 z"
     fill="#6ec9c9"
     id="path78"
     transform="translate(9.1655025,8.1471128)" />
  <path
     clip-path="url(#prefix__SVGID_4_)"
     d="M 84.668,34.66 83.604,11.82 h 0.327 l 1.064,22.84 z"
     fill="#6dc9c9"
     id="path79"
     transform="translate(9.1655025,8.1471128)" />
  <path
     clip-path="url(#prefix__SVGID_4_)"
     d="M 84.342,34.66 83.278,11.82 h 0.326 l 1.064,22.84 z"
     fill="#6cc9c8"
     id="path80"
     transform="translate(9.1655025,8.1471128)" />
  <path
     clip-path="url(#prefix__SVGID_4_)"
     d="M 84.015,34.66 82.951,11.82 h 0.327 l 1.064,22.84 z"
     fill="#6bc9c8"
     id="path81"
     transform="translate(9.1655025,8.1471128)" />
  <path
     clip-path="url(#prefix__SVGID_4_)"
     d="M 83.689,34.66 82.625,11.82 h 0.326 l 1.064,22.84 z"
     fill="#6ac8c8"
     id="path82"
     transform="translate(9.1655025,8.1471128)" />
  <path
     clip-path="url(#prefix__SVGID_4_)"
     d="M 83.362,34.66 82.298,11.82 h 0.327 l 1.064,22.84 z"
     fill="#69c8c8"
     id="path83"
     transform="translate(9.1655025,8.1471128)" />
  <path
     clip-path="url(#prefix__SVGID_4_)"
     d="M 83.036,34.66 81.972,11.82 h 0.326 l 1.064,22.84 z"
     fill="#68c8c7"
     id="path84"
     transform="translate(9.1655025,8.1471128)" />
  <path
     clip-path="url(#prefix__SVGID_4_)"
     d="M 82.709,34.66 81.645,11.82 h 0.327 l 1.064,22.84 z"
     fill="#67c8c7"
     id="path85"
     transform="translate(9.1655025,8.1471128)" />
  <path
     clip-path="url(#prefix__SVGID_4_)"
     d="M 82.383,34.66 81.319,11.82 h 0.326 l 1.064,22.84 z"
     fill="#66c7c7"
     id="path86"
     transform="translate(9.1655025,8.1471128)" />
  <path
     clip-path="url(#prefix__SVGID_4_)"
     d="M 82.056,34.66 80.992,11.82 h 0.327 l 1.064,22.84 z"
     fill="#65c7c6"
     id="path87"
     transform="translate(9.1655025,8.1471128)" />
  <path
     clip-path="url(#prefix__SVGID_4_)"
     d="M 81.73,34.66 80.666,11.82 h 0.326 l 1.064,22.84 z"
     fill="#63c7c6"
     id="path88"
     transform="translate(9.1655025,8.1471128)" />
  <path
     clip-path="url(#prefix__SVGID_4_)"
     d="M 81.403,34.66 80.339,11.82 h 0.327 l 1.064,22.84 z"
     fill="#62c7c6"
     id="path89"
     transform="translate(9.1655025,8.1471128)" />
  <path
     clip-path="url(#prefix__SVGID_4_)"
     d="M 81.077,34.66 80.013,11.82 h 0.326 l 1.064,22.84 z"
     fill="#61c6c6"
     id="path90"
     transform="translate(9.1655025,8.1471128)" />
  <path
     clip-path="url(#prefix__SVGID_4_)"
     d="M 80.75,34.66 79.686,11.82 h 0.327 l 1.064,22.84 z"
     fill="#60c6c5"
     id="path91"
     transform="translate(9.1655025,8.1471128)" />
  <path
     clip-path="url(#prefix__SVGID_4_)"
     d="M 80.424,34.66 79.36,11.82 h 0.326 l 1.064,22.84 z"
     fill="#5fc6c5"
     id="path92"
     transform="translate(9.1655025,8.1471128)" />
  <path
     clip-path="url(#prefix__SVGID_4_)"
     d="M 80.097,34.66 79.033,11.82 h 0.327 l 1.064,22.84 z"
     fill="#5dc5c5"
     id="path93"
     transform="translate(9.1655025,8.1471128)" />
  <path
     clip-path="url(#prefix__SVGID_4_)"
     d="M 79.77,34.66 78.707,11.82 h 0.326 l 1.064,22.84 z"
     fill="#5cc5c4"
     id="path94"
     transform="translate(9.1655025,8.1471128)" />
  <path
     clip-path="url(#prefix__SVGID_4_)"
     d="M 79.444,34.66 78.38,11.82 h 0.327 l 1.064,22.84 z"
     fill="#5bc5c4"
     id="path95"
     transform="translate(9.1655025,8.1471128)" />
  <path
     clip-path="url(#prefix__SVGID_4_)"
     d="M 79.118,34.66 78.054,11.82 h 0.326 l 1.064,22.84 z"
     fill="#59c5c4"
     id="path96"
     transform="translate(9.1655025,8.1471128)" />
  <path
     clip-path="url(#prefix__SVGID_4_)"
     d="M 78.791,34.66 77.727,11.82 h 0.327 l 1.064,22.84 z"
     fill="#58c4c3"
     id="path97"
     transform="translate(9.1655025,8.1471128)" />
  <path
     clip-path="url(#prefix__SVGID_4_)"
     d="M 78.465,34.66 77.4,11.82 h 0.326 l 1.064,22.84 z"
     fill="#57c4c3"
     id="path98"
     transform="translate(9.1655025,8.1471128)" />
  <path
     clip-path="url(#prefix__SVGID_4_)"
     d="M 78.138,34.66 77.074,11.82 h 0.327 l 1.064,22.84 z"
     fill="#55c4c3"
     id="path99"
     transform="translate(9.1655025,8.1471128)" />
  <path
     clip-path="url(#prefix__SVGID_4_)"
     d="M 77.812,34.66 76.748,11.82 h 0.326 l 1.064,22.84 z"
     fill="#54c3c2"
     id="path100"
     transform="translate(9.1655025,8.1471128)" />
  <path
     clip-path="url(#prefix__SVGID_4_)"
     d="M 77.485,34.66 76.421,11.82 h 0.327 l 1.064,22.84 z"
     fill="#52c3c2"
     id="path101"
     transform="translate(9.1655025,8.1471128)" />
  <path
     clip-path="url(#prefix__SVGID_4_)"
     d="M 77.159,34.66 76.095,11.82 h 0.326 l 1.064,22.84 z"
     fill="#50c3c2"
     id="path102"
     transform="translate(9.1655025,8.1471128)" />
  <path
     clip-path="url(#prefix__SVGID_4_)"
     d="M 76.832,34.66 75.768,11.82 h 0.327 l 1.064,22.84 z"
     fill="#4fc2c1"
     id="path103"
     transform="translate(9.1655025,8.1471128)" />
  <path
     clip-path="url(#prefix__SVGID_4_)"
     d="M 76.506,34.66 75.442,11.82 h 0.326 l 1.064,22.84 z"
     fill="#4dc2c1"
     id="path104"
     transform="translate(9.1655025,8.1471128)" />
  <path
     clip-path="url(#prefix__SVGID_4_)"
     d="M 76.179,34.66 75.115,11.82 h 0.327 l 1.064,22.84 z"
     fill="#4bc2c1"
     id="path105"
     transform="translate(9.1655025,8.1471128)" />
  <path
     clip-path="url(#prefix__SVGID_4_)"
     d="M 75.853,34.66 74.789,11.82 h 0.326 l 1.064,22.84 z"
     fill="#4ac1c0"
     id="path106"
     transform="translate(9.1655025,8.1471128)" />
  <path
     clip-path="url(#prefix__SVGID_4_)"
     d="M 75.526,34.66 74.462,11.82 h 0.327 l 1.064,22.84 z"
     fill="#48c1c0"
     id="path107"
     transform="translate(9.1655025,8.1471128)" />
  <path
     clip-path="url(#prefix__SVGID_4_)"
     d="M 75.2,34.66 74.136,11.82 h 0.326 l 1.064,22.84 z"
     fill="#46c1c0"
     id="path108"
     transform="translate(9.1655025,8.1471128)" />
  <path
     clip-path="url(#prefix__SVGID_4_)"
     d="M 74.873,34.66 73.809,11.82 h 0.327 L 75.2,34.66 Z"
     fill="#44c1bf"
     id="path109"
     transform="translate(9.1655025,8.1471128)" />
  <path
     clip-path="url(#prefix__SVGID_4_)"
     d="M 74.547,34.66 73.483,11.82 h 0.326 l 1.064,22.84 z"
     fill="#42c0bf"
     id="path110"
     transform="translate(9.1655025,8.1471128)" />
  <path
     clip-path="url(#prefix__SVGID_4_)"
     d="M 74.22,34.66 73.156,11.82 h 0.327 l 1.064,22.84 z"
     fill="#40c0be"
     id="path111"
     transform="translate(9.1655025,8.1471128)" />
  <path
     clip-path="url(#prefix__SVGID_4_)"
     d="M 73.894,34.66 72.83,11.82 h 0.326 l 1.064,22.84 z"
     fill="#3ec0be"
     id="path112"
     transform="translate(9.1655025,8.1471128)" />
  <path
     clip-path="url(#prefix__SVGID_4_)"
     d="M 73.567,34.66 72.503,11.82 h 0.327 l 1.064,22.84 z"
     fill="#3cbfbe"
     id="path113"
     transform="translate(9.1655025,8.1471128)" />
  <path
     clip-path="url(#prefix__SVGID_4_)"
     d="M 73.24,34.66 72.177,11.82 h 0.326 l 1.064,22.84 z"
     fill="#39bfbd"
     id="path114"
     transform="translate(9.1655025,8.1471128)" />
  <path
     clip-path="url(#prefix__SVGID_4_)"
     d="M 72.914,34.66 71.85,11.82 h 0.327 l 1.064,22.84 z"
     fill="#37bfbd"
     id="path115"
     transform="translate(9.1655025,8.1471128)" />
  <path
     clip-path="url(#prefix__SVGID_4_)"
     d="M 72.588,34.66 71.524,11.82 h 0.326 l 1.064,22.84 z"
     fill="#34bebd"
     id="path116"
     transform="translate(9.1655025,8.1471128)" />
  <path
     clip-path="url(#prefix__SVGID_4_)"
     d="M 72.261,34.66 71.197,11.82 h 0.327 l 1.063,22.84 z"
     fill="#32bebc"
     id="path117"
     transform="translate(9.1655025,8.1471128)" />
  <path
     clip-path="url(#prefix__SVGID_4_)"
     d="M 71.934,34.66 70.871,11.82 h 0.326 l 1.064,22.84 z"
     fill="#2fbdbc"
     id="path118"
     transform="translate(9.1655025,8.1471128)" />
  <path
     clip-path="url(#prefix__SVGID_4_)"
     d="M 71.608,34.66 70.544,11.82 h 0.327 l 1.064,22.84 z"
     fill="#2cbdbb"
     id="path119"
     transform="translate(9.1655025,8.1471128)" />
  <path
     clip-path="url(#prefix__SVGID_4_)"
     d="M 71.281,34.66 70.218,11.82 h 0.326 l 1.064,22.84 z"
     fill="#28bdbb"
     id="path120"
     transform="translate(9.1655025,8.1471128)" />
  <path
     clip-path="url(#prefix__SVGID_4_)"
     d="M 70.955,34.66 69.891,11.82 h 0.327 l 1.063,22.84 z"
     fill="#25bcbb"
     id="path121"
     transform="translate(9.1655025,8.1471128)" />
  <path
     clip-path="url(#prefix__SVGID_4_)"
     d="M 70.629,34.66 69.565,11.82 h 0.326 l 1.064,22.84 z"
     fill="#21bcba"
     id="path122"
     transform="translate(9.1655025,8.1471128)" />
  <path
     clip-path="url(#prefix__SVGID_4_)"
     d="M 70.302,34.66 69.238,11.82 h 0.327 l 1.064,22.84 z"
     fill="#1cbcba"
     id="path123"
     transform="translate(9.1655025,8.1471128)" />
  <path
     clip-path="url(#prefix__SVGID_4_)"
     d="M 69.975,34.66 68.912,11.82 h 0.326 l 1.064,22.84 z"
     fill="#16bbba"
     id="path124"
     transform="translate(9.1655025,8.1471128)" />
  <path
     clip-path="url(#prefix__SVGID_4_)"
     d="M 69.649,34.66 68.585,11.82 h 0.327 l 1.063,22.84 z"
     fill="#0fbbb9"
     id="path125"
     transform="translate(9.1655025,8.1471128)" />
  <path
     clip-path="url(#prefix__SVGID_4_)"
     d="M 69.323,34.66 68.259,11.82 h 0.326 l 1.064,22.84 z"
     fill="#04bbb9"
     id="path126"
     transform="translate(9.1655025,8.1471128)" />
  <path
     class="prefix__st120"
     d="M 68.996,34.66 67.932,11.82 h 0.327 l 1.063,22.84 z m -0.326,0 -1.064,-22.84 h 0.326 l 1.064,22.84 z m -0.327,0 -1.064,-22.84 h 0.327 l 1.064,22.84 z"
     clip-path="url(#prefix__SVGID_4_)"
     id="path127"
     transform="translate(9.1655025,8.1471128)" />
  <path
     class="prefix__st121"
     d="M 68.016,34.66 66.953,11.82 h 0.326 l 1.064,22.84 z"
     clip-path="url(#prefix__SVGID_4_)"
     id="path128"
     transform="translate(9.1655025,8.1471128)" />
  <path
     class="prefix__st121"
     d="M 67.69,34.66 66.626,11.82 h 0.327 l 1.063,22.84 z"
     clip-path="url(#prefix__SVGID_4_)"
     id="path129"
     transform="translate(9.1655025,8.1471128)" />
  <path
     clip-path="url(#prefix__SVGID_4_)"
     d="M 67.364,34.66 66.3,11.82 h 0.326 l 1.064,22.84 z"
     fill="#00b9b6"
     id="path130"
     transform="translate(9.1655025,8.1471128)" />
  <path
     d="M 67.037,34.66 65.973,11.82 H 66.3 l 1.064,22.84 z m -0.327,0 -1.063,-22.84 h 0.326 l 1.064,22.84 z"
     clip-path="url(#prefix__SVGID_4_)"
     fill="#00b8b6"
     id="path131"
     transform="translate(9.1655025,8.1471128)" />
  <path
     clip-path="url(#prefix__SVGID_4_)"
     d="M 66.384,34.66 65.32,11.82 h 0.327 l 1.063,22.84 z"
     fill="#00b8b5"
     id="path132"
     transform="translate(9.1655025,8.1471128)" />
  <path
     clip-path="url(#prefix__SVGID_4_)"
     d="M 66.058,34.66 64.994,11.82 h 0.326 l 1.064,22.84 z"
     fill="#00b7b5"
     id="path133"
     transform="translate(9.1655025,8.1471128)" />
  <path
     class="prefix__st126"
     d="M 65.731,34.66 64.667,11.82 h 0.327 l 1.063,22.84 z m -0.327,0 -1.063,-22.84 h 0.326 l 1.064,22.84 z"
     clip-path="url(#prefix__SVGID_4_)"
     id="path134"
     transform="translate(9.1655025,8.1471128)" />
  <path
     clip-path="url(#prefix__SVGID_4_)"
     d="M 65.078,34.66 64.014,11.82 h 0.327 l 1.064,22.84 z"
     fill="#00b6b4"
     id="path135"
     transform="translate(9.1655025,8.1471128)" />
  <path
     class="prefix__st128"
     d="M 64.751,34.66 64.013,18.802 V 11.82 h 10e-4 l 1.064,22.84 z m -0.326,0 -0.412,-8.848 v -7.01 l 0.738,15.858 z"
     clip-path="url(#prefix__SVGID_4_)"
     id="path136"
     transform="translate(9.1655025,8.1471128)" />
  <path
     class="prefix__st129"
     d="m 64.099,34.66 -0.086,-1.838 v -7.01 l 0.412,8.848 z m -0.086,-1.838 0.085,1.838 h -0.085 z"
     clip-path="url(#prefix__SVGID_4_)"
     id="path137"
     transform="translate(9.1655025,8.1471128)" />
  <g
     id="g138"
     style="fill:#1a1a1a"
     transform="translate(9.1655025,8.1471128)">
    <path
       class="prefix__st0"
       d="M 23.01,11.698 11.264,23.532 23.098,35.28 33.11,35.243 22.61,24.828 l 51.842,-0.193 -4.543,4.575 5.005,-0.019 5.874,-5.917 -5.917,-5.873 -5.006,0.019 4.578,4.54 -51.842,0.193 10.42,-10.492 z"
       id="path138"
       style="fill:#1a1a1a" />
  </g>
</svg>
